<?xml version="1.0" encoding="UTF-8" standalone="yes"?>
<svg version="1.1" id="Layer_1" xmlns:x="&amp;ns_extend;" xmlns:i="&amp;ns_ai;" xmlns:graph="&amp;ns_graphs;" xmlns="http://www.w3.org/2000/svg" xmlns:xlink="http://www.w3.org/1999/xlink" x="0px" y="0px" viewBox="0 0 315 218.446" style="enable-background:new 0 0 315 218.446;" xml:space="preserve">
      <style type="text/css">.st0{fill:#010101;}</style>
    <metadata>
              <sfw>
                      <slices/>
            <sliceSourceBounds bottomLeftOrigin="true" height="218.446" width="315" x="152.415" y="-330.601"/>
                  </sfw>
          </metadata>
    <g id="color_index_0" fill="rgba(0, 0, 0, 1)">
              <path d="M146.627,85.207c-12.191,18.365-22.422,38.393-30.695,60.024c-7.837,20.562-13.932,42.826-18.108,66.218&#x9;&#x9;C85.197,162.943,57.808,117.326,0,88.67L43.974,0.009C86.286,21.007,120.622,49.525,146.627,85.207z M271.026,0&#x9;&#x9;c-65.922,32.713-112.508,83.713-138.453,151.594c-8.609,22.561-14.249,45.241-17.89,66.852h100.792&#x9;&#x9;c11.795-51.099,38.947-99.743,99.526-129.785L271.026,0z"/>
          </g>
  </svg>